{
    "asset" : {
        "generator" : "Khronos glTF Blender I/O v1.6.16",
        "version" : "2.0"
    },
    "scene" : 0,
    "scenes" : [
        {
            "name" : "Scene",
            "nodes" : [
                0,
                1,
                2,
                3,
                4,
                5
            ]
        }
    ],
    "nodes" : [
        {
            "name" : "Light",
            "rotation" : [
                0.5232755541801453,
                0.7269423007965088,
                0.3420339524745941,
                0.2841663360595703
            ],
            "translation" : [
                4.076245307922363,
                1.9424610137939453,
                2.9545187950134277
            ]
        },
        {
            "name" : "Camera",
            "rotation" : [
                0.8937963247299194,
                0.38578000664711,
                0.09062845259904861,
                0.20997296273708344
            ],
            "translation" : [
                7.358891010284424,
                -5.988783359527588,
                2.008965492248535
            ]
        },
        {
            "mesh" : 0,
            "name" : "tut3qn1a(new)",
            "rotation" : [
                0.7071068286895752,
                0,
                0,
                0.7071068286895752
            ],
            "translation" : [
                0,
                0.9370079040527344,
                -2.949343204498291
            ]
        },
        {
            "mesh" : 1,
            "name" : "A",
            "rotation" : [
                0.7071068286895752,
                0,
                0,
                0.7071068286895752
            ],
            "translation" : [
                0,
                0.5068235397338867,
                6.952897071838379
            ]
        },
        {
            "mesh" : 2,
            "name" : "Cylinder",
            "rotation" : [
                -0.7071068286895752,
                0,
                0,
                0.7071068286895752
            ],
            "scale" : [
                0.07036961615085602,
                0.28351935744285583,
                0.07036961615085602
            ],
            "translation" : [
                -0.015314102172851562,
                0.6817259788513184,
                5.087042331695557
            ]
        },
        {
            "mesh" : 3,
            "name" : "Cone",
            "rotation" : [
                -0.7071068286895752,
                0,
                0,
                0.7071068286895752
            ],
            "scale" : [
                0.17370647192001343,
                0.17370647192001343,
                0.17370647192001343
            ],
            "translation" : [
                -0.015314102172851562,
                0.6817259788513184,
                4.7463459968566895
            ]
        }
    ],
    "materials" : [
        {
            "doubleSided" : true,
            "name" : "Material.001",
            "pbrMetallicRoughness" : {
                "baseColorFactor" : [
                    0.15953391790390015,
                    0.8000000715255737,
                    0,
                    1
                ],
                "metallicFactor" : 0,
                "roughnessFactor" : 0.5
            }
        }
    ],
    "meshes" : [
        {
            "name" : "tut3qn1a(new)",
            "primitives" : [
                {
                    "attributes" : {
                        "POSITION" : 0,
                        "NORMAL" : 1
                    },
                    "indices" : 2,
                    "material" : 0
                }
            ]
        },
        {
            "name" : "Text",
            "primitives" : [
                {
                    "attributes" : {
                        "POSITION" : 3,
                        "NORMAL" : 4,
                        "TEXCOORD_0" : 5
                    },
                    "indices" : 6
                }
            ]
        },
        {
            "name" : "Cylinder",
            "primitives" : [
                {
                    "attributes" : {
                        "POSITION" : 7,
                        "NORMAL" : 8,
                        "TEXCOORD_0" : 9
                    },
                    "indices" : 10
                }
            ]
        },
        {
            "name" : "Cone",
            "primitives" : [
                {
                    "attributes" : {
                        "POSITION" : 11,
                        "NORMAL" : 12,
                        "TEXCOORD_0" : 13
                    },
                    "indices" : 14
                }
            ]
        }
    ],
    "accessors" : [
        {
            "bufferView" : 0,
            "componentType" : 5126,
            "count" : 234,
            "max" : [
                3.5,
                5.5,
                3.0310888290405273
            ],
            "min" : [
                -3.5,
                0,
                -3.443222999572754
            ],
            "type" : "VEC3"
        },
        {
            "bufferView" : 1,
            "componentType" : 5126,
            "count" : 234,
            "type" : "VEC3"
        },
        {
            "bufferView" : 2,
            "componentType" : 5123,
            "count" : 282,
            "type" : "SCALAR"
        },
        {
            "bufferView" : 3,
            "componentType" : 5126,
            "count" : 17,
            "max" : [
                0.6670000553131104,
                0,
                0
            ],
            "min" : [
                0,
                0,
                -0.6860000491142273
            ],
            "type" : "VEC3"
        },
        {
            "bufferView" : 4,
            "componentType" : 5126,
            "count" : 17,
            "type" : "VEC3"
        },
        {
            "bufferView" : 5,
            "componentType" : 5126,
            "count" : 17,
            "type" : "VEC2"
        },
        {
            "bufferView" : 6,
            "componentType" : 5123,
            "count" : 33,
            "type" : "SCALAR"
        },
        {
            "bufferView" : 7,
            "componentType" : 5126,
            "count" : 192,
            "max" : [
                1,
                1,
                1
            ],
            "min" : [
                -1,
                -6.3312554359436035,
                -1.0000009536743164
            ],
            "type" : "VEC3"
        },
        {
            "bufferView" : 8,
            "componentType" : 5126,
            "count" : 192,
            "type" : "VEC3"
        },
        {
            "bufferView" : 9,
            "componentType" : 5126,
            "count" : 192,
            "type" : "VEC2"
        },
        {
            "bufferView" : 10,
            "componentType" : 5123,
            "count" : 372,
            "type" : "SCALAR"
        },
        {
            "bufferView" : 11,
            "componentType" : 5126,
            "count" : 128,
            "max" : [
                1,
                1,
                1
            ],
            "min" : [
                -1,
                -1,
                -1
            ],
            "type" : "VEC3"
        },
        {
            "bufferView" : 12,
            "componentType" : 5126,
            "count" : 128,
            "type" : "VEC3"
        },
        {
            "bufferView" : 13,
            "componentType" : 5126,
            "count" : 128,
            "type" : "VEC2"
        },
        {
            "bufferView" : 14,
            "componentType" : 5123,
            "count" : 186,
            "type" : "SCALAR"
        }
    ],
    "bufferViews" : [
        {
            "buffer" : 0,
            "byteLength" : 2808,
            "byteOffset" : 0
        },
        {
            "buffer" : 0,
            "byteLength" : 2808,
            "byteOffset" : 2808
        },
        {
            "buffer" : 0,
            "byteLength" : 564,
            "byteOffset" : 5616
        },
        {
            "buffer" : 0,
            "byteLength" : 204,
            "byteOffset" : 6180
        },
        {
            "buffer" : 0,
            "byteLength" : 204,
            "byteOffset" : 6384
        },
        {
            "buffer" : 0,
            "byteLength" : 136,
            "byteOffset" : 6588
        },
        {
            "buffer" : 0,
            "byteLength" : 66,
            "byteOffset" : 6724
        },
        {
            "buffer" : 0,
            "byteLength" : 2304,
            "byteOffset" : 6792
        },
        {
            "buffer" : 0,
            "byteLength" : 2304,
            "byteOffset" : 9096
        },
        {
            "buffer" : 0,
            "byteLength" : 1536,
            "byteOffset" : 11400
        },
        {
            "buffer" : 0,
            "byteLength" : 744,
            "byteOffset" : 12936
        },
        {
            "buffer" : 0,
            "byteLength" : 1536,
            "byteOffset" : 13680
        },
        {
            "buffer" : 0,
            "byteLength" : 1536,
            "byteOffset" : 15216
        },
        {
            "buffer" : 0,
            "byteLength" : 1024,
            "byteOffset" : 16752
        },
        {
            "buffer" : 0,
            "byteLength" : 372,
            "byteOffset" : 17776
        }
    ],
    "buffers" : [
        {
            "byteLength" : 18148,
            "uri" : "data:application/octet-stream;base64,"
        }
    ]
}
