{
    "asset" : {
        "generator" : "Khronos glTF Blender I/O v1.6.16",
        "version" : "2.0"
    },
    "scene" : 0,
    "scenes" : [
        {
            "name" : "Scene",
            "nodes" : [
                0,
                1,
                2,
                3,
                4
            ]
        }
    ],
    "nodes" : [
        {
            "name" : "Light",
            "rotation" : [
                0.5232755541801453,
                0.7269423007965088,
                0.3420339524745941,
                0.2841663360595703
            ],
            "translation" : [
                4.076245307922363,
                4.036562919616699,
                2.9545187950134277
            ]
        },
        {
            "name" : "Camera",
            "rotation" : [
                0.8937963247299194,
                0.38578000664711,
                0.09062845259904861,
                0.20997296273708344
            ],
            "translation" : [
                7.358891010284424,
                -3.894681453704834,
                2.008965492248535
            ]
        },
        {
            "mesh" : 0,
            "name" : "tut3qn1a(new)",
            "rotation" : [
                0.7071068286895752,
                0,
                0,
                0.7071068286895752
            ],
            "translation" : [
                0,
                3.0311098098754883,
                -2.949343204498291
            ]
        },
        {
            "name" : "Empty",
            "rotation" : [
                0.7071065902709961,
                0,
                0,
                -0.7071069478988647
            ],
            "scale" : [
                2.151550769805908,
                2.151550769805908,
                2.151550769805908
            ],
            "translation" : [
                0,
                2.7958807945251465,
                6.784597873687744
            ]
        },
        {
            "mesh" : 1,
            "name" : "A",
            "rotation" : [
                0.7071068286895752,
                0,
                0,
                0.7071068286895752
            ],
            "translation" : [
                0,
                2.6009254455566406,
                6.952897071838379
            ]
        }
    ],
    "materials" : [
        {
            "doubleSided" : true,
            "name" : "Material.001",
            "pbrMetallicRoughness" : {
                "baseColorFactor" : [
                    0.15953391790390015,
                    0.8000000715255737,
                    0,
                    1
                ],
                "metallicFactor" : 0,
                "roughnessFactor" : 0.5
            }
        }
    ],
    "meshes" : [
        {
            "name" : "tut3qn1a(new)",
            "primitives" : [
                {
                    "attributes" : {
                        "POSITION" : 0,
                        "NORMAL" : 1
                    },
                    "indices" : 2,
                    "material" : 0
                }
            ]
        },
        {
            "name" : "Text",
            "primitives" : [
                {
                    "attributes" : {
                        "POSITION" : 3,
                        "NORMAL" : 4,
                        "TEXCOORD_0" : 5
                    },
                    "indices" : 6
                }
            ]
        }
    ],
    "accessors" : [
        {
            "bufferView" : 0,
            "componentType" : 5126,
            "count" : 234,
            "max" : [
                3.5,
                5.5,
                3.0310888290405273
            ],
            "min" : [
                -3.5,
                0,
                -3.443222999572754
            ],
            "type" : "VEC3"
        },
        {
            "bufferView" : 1,
            "componentType" : 5126,
            "count" : 234,
            "type" : "VEC3"
        },
        {
            "bufferView" : 2,
            "componentType" : 5123,
            "count" : 282,
            "type" : "SCALAR"
        },
        {
            "bufferView" : 3,
            "componentType" : 5126,
            "count" : 17,
            "max" : [
                0.6670000553131104,
                0,
                0
            ],
            "min" : [
                0,
                0,
                -0.6860000491142273
            ],
            "type" : "VEC3"
        },
        {
            "bufferView" : 4,
            "componentType" : 5126,
            "count" : 17,
            "type" : "VEC3"
        },
        {
            "bufferView" : 5,
            "componentType" : 5126,
            "count" : 17,
            "type" : "VEC2"
        },
        {
            "bufferView" : 6,
            "componentType" : 5123,
            "count" : 33,
            "type" : "SCALAR"
        }
    ],
    "bufferViews" : [
        {
            "buffer" : 0,
            "byteLength" : 2808,
            "byteOffset" : 0
        },
        {
            "buffer" : 0,
            "byteLength" : 2808,
            "byteOffset" : 2808
        },
        {
            "buffer" : 0,
            "byteLength" : 564,
            "byteOffset" : 5616
        },
        {
            "buffer" : 0,
            "byteLength" : 204,
            "byteOffset" : 6180
        },
        {
            "buffer" : 0,
            "byteLength" : 204,
            "byteOffset" : 6384
        },
        {
            "buffer" : 0,
            "byteLength" : 136,
            "byteOffset" : 6588
        },
        {
            "buffer" : 0,
            "byteLength" : 66,
            "byteOffset" : 6724
        }
    ],
    "buffers" : [
        {
            "byteLength" : 6792,
            "uri" : "data:application/octet-stream;base64,"
        }
    ]
}
